<?xml version="1.0" encoding="UTF-8" standalone="no"?>
<svg
   xmlns:dc="http://purl.org/dc/elements/1.1/"
   xmlns:cc="http://creativecommons.org/ns#"
   xmlns:rdf="http://www.w3.org/1999/02/22-rdf-syntax-ns#"
   xmlns:svg="http://www.w3.org/2000/svg"
   xmlns="http://www.w3.org/2000/svg"
   xmlns:sodipodi="http://sodipodi.sourceforge.net/DTD/sodipodi-0.dtd"
   xmlns:inkscape="http://www.inkscape.org/namespaces/inkscape"
   width="249.76399pt"
   height="391.99399pt"
   version="1.1"
   viewBox="0 0 249.76399 391.99399"
   id="svg698"
   sodipodi:docname="noun-microphone-1052504.svg"
   inkscape:version="0.92.5 (2060ec1f9f, 2020-04-08)">
  <metadata
     id="metadata702">
    <rdf:RDF>
      <cc:Work
         rdf:about="">
        <dc:format>image/svg+xml</dc:format>
        <dc:type
           rdf:resource="http://purl.org/dc/dcmitype/StillImage" />
        <dc:title></dc:title>
      </cc:Work>
    </rdf:RDF>
  </metadata>
  <sodipodi:namedview
     pagecolor="#ffffff"
     bordercolor="#666666"
     borderopacity="1"
     objecttolerance="10"
     gridtolerance="10"
     guidetolerance="10"
     inkscape:pageopacity="0"
     inkscape:pageshadow="2"
     inkscape:window-width="1221"
     inkscape:window-height="864"
     id="namedview700"
     showgrid="false"
     fit-margin-top="0"
     fit-margin-left="0"
     fit-margin-right="0"
     fit-margin-bottom="0"
     inkscape:zoom="0.25285714"
     inkscape:cx="166.50534"
     inkscape:cy="167.99732"
     inkscape:window-x="2143"
     inkscape:window-y="976"
     inkscape:window-maximized="0"
     inkscape:current-layer="g696" />
  <defs
     id="defs600" />
  <g
     id="g696"
     transform="translate(-225.121,-84.004)">
    <path
       d="m 346.08,376.32 h 7.2812 c 43.121,0 78.398,-35.281 78.398,-78.398 l 0.004,-135.52 c 0,-43.121 -35.281,-78.398 -78.398,-78.398 h -7.2812 c -43.121,0 -78.398,35.281 -78.398,78.398 v 134.96 c -0.004,43.68 35.277,78.961 78.395,78.961 z"
       id="path602"
       inkscape:connector-curvature="0" />
    <path
       d="m 443.52,294 c 0,51.52 -42,93.52 -93.52,93.52 -51.52,0 -93.52,-42 -93.52,-93.52 h -31.359 c 0,63.84 48.719,117.04 110.88,123.76 v 38.078 h -36.398 v 20.16 h 100.8 v -20.16 H 364.005 V 417.76 c 62.16,-6.7188 110.88,-59.922 110.88,-123.76 z"
       id="path604"
       inkscape:connector-curvature="0" />
  </g>
</svg>
